<svg xmlns="http://www.w3.org/2000/svg" width="25" height="24" viewBox="0 0 25 24">
    <path fill="#FFF" fill-rule="nonzero" d="M19.881 4c-.443 0-.848.25-1.047.646l-.623 1.243-6.058 2.588a.942.942 0 0 0-.574.867v6.31c0 .378.225.72.574.87l6.058 2.587.623 1.243c.199.395.604.646 1.047.646a1.17 1.17 0 0 0 1.172-1.168v-5.7c.585-.336.946-.958.947-1.632 0-.674-.362-1.297-.947-1.634V5.168A1.17 1.17 0 0 0 19.88 4zM5.895 8.722c-1.042 0-1.895.85-1.895 1.89v3.777c0 1.039.853 1.889 1.895 1.889h1.894v3.778c0 .52.425.944.948.944a.946.946 0 0 0 .947-.944V9.667a.946.946 0 0 0-.947-.945H5.895z"/>
</svg>
