<svg xmlns="http://www.w3.org/2000/svg" width="25" height="24" viewBox="0 0 25 24">
    <path fill="#FFF" fill-rule="nonzero" d="M13 3c-4.968 0-9 4.032-9 9s4.032 9 9 9 9-4.032 9-9-4.032-9-9-9zm.45 15.3h-.9a.45.45 0 0 1-.45-.45v-.9a.45.45 0 0 1 .45-.45h.9a.45.45 0 0 1 .45.45v.9a.45.45 0 0 1-.45.45zm2.313-6.975l-.81.828c-.648.657-1.053 1.197-1.053 2.547h-1.8v-.45c0-.99.405-1.89 1.053-2.547l1.116-1.134c.411-.4.617-.992.498-1.623a1.794 1.794 0 0 0-1.25-1.373 1.807 1.807 0 0 0-2.22 1.145c-.115.334-.396.582-.75.582h-.261a.783.783 0 0 1-.743-1.01 3.603 3.603 0 0 1 2.903-2.548c1.371-.211 2.672.494 3.485 1.62 1.062 1.468.75 3.046-.168 3.963z"/>
</svg>
