<svg xmlns="http://www.w3.org/2000/svg" width="16" height="16" viewBox="0 0 16 16">
    <path fill="#110F24" fill-opacity=".4" fill-rule="evenodd" d="M6.026 2.75c.045.003.057.003.102.01a.752.752 0 0 1 .403.21l4.5 4.5c.03.033.04.04.067.076a.751.751 0 0 1 0 .907c-.028.036-.036.044-.067.077l-4.5 4.5c-.034.031-.041.04-.078.067a.753.753 0 0 1-.775.08.756.756 0 0 1-.393-.904.751.751 0 0 1 .118-.226c.027-.037.036-.044.067-.078L9.44 8 5.47 4.03l-.035-.037c-.029-.035-.037-.043-.062-.081a.751.751 0 0 1 .5-1.15c.045-.008.056-.008.102-.011h.05z"/>
</svg>
