<svg xmlns="http://www.w3.org/2000/svg" width="32" height="32" viewBox="0 0 32 32">
    <g fill="none" fill-rule="evenodd">
        <rect width="32" height="32" fill="#4780F7" rx="4"/>
        <path d="M4 4h24v24H4z"/>
        <path fill="#FFF" d="M20.5 16c1.38 0 2.49-1.12 2.49-2.5S21.88 11 20.5 11a2.5 2.5 0 0 0 0 5zM13 15c1.66 0 2.99-1.34 2.99-3S14.66 9 13 9c-1.66 0-3 1.34-3 3s1.34 3 3 3zm7.5 3c-1.83 0-5.5.92-5.5 2.75V23h11v-2.25c0-1.83-3.67-2.75-5.5-2.75zM13 17c-2.33 0-7 1.17-7 3.5V23h7v-2.25c0-.85.33-2.34 2.37-3.47C14.5 17.1 13.66 17 13 17z"/>
    </g>
</svg>
