<svg xmlns="http://www.w3.org/2000/svg" width="72" height="72" viewBox="0 0 72 72">
    <defs>
        <linearGradient id="a" x1="18.896%" x2="88.005%" y1="10.373%" y2="100%">
            <stop offset="0%" stop-color="#EAF1FF"/>
            <stop offset="100%" stop-color="#E1E8F5"/>
        </linearGradient>
    </defs>
    <g fill="none" fill-rule="evenodd">
        <rect width="72" height="72" fill="url(#a)" rx="36"/>
        <path fill="#1249BD" fill-rule="nonzero" d="M41.558 24.09a2.599 2.599 0 0 0-2.6 2.6v8.307c0 .704.852 1.057 1.349.559l2.206-2.366h4.245a2.58 2.58 0 0 0 1.452-.445c.277-.187.516-.426.703-.703a2.58 2.58 0 0 0 .445-1.452v-3.9a2.58 2.58 0 0 0-.445-1.452 2.623 2.623 0 0 0-.703-.703 2.58 2.58 0 0 0-1.452-.444h-5.2zm-9.749 2.6a4.55 4.55 0 1 0 0 9.1 4.55 4.55 0 0 0 0-9.1zm0 11.7c-3.88 0-9.749 2.332-9.749 5.849v1.95a1.3 1.3 0 0 0 1.3 1.3H40.26a1.3 1.3 0 0 0 1.3-1.3v-1.95c0-3.517-5.87-5.85-9.75-5.85z"/>
    </g>
</svg>
