<svg xmlns="http://www.w3.org/2000/svg" width="72" height="72" viewBox="0 0 72 72">
    <defs>
        <linearGradient id="a" x1="10.536%" x2="92.974%" y1="9.646%" y2="100%">
            <stop offset="0%" stop-color="#FCF0F6"/>
            <stop offset="100%" stop-color="#F2E6EC"/>
        </linearGradient>
    </defs>
    <g fill="none" fill-rule="evenodd">
        <rect width="72" height="72" fill="url(#a)" rx="36"/>
        <path fill="#E20071" fill-rule="nonzero" d="M26.64 24.108a2.32 2.32 0 0 0-2.32 2.32v11.599c0 1.28 1.04 2.32 2.32 2.32h-3.48a1.16 1.16 0 0 0 0 2.32h14.118l1.079-1.079a6.951 6.951 0 0 1-.118-1.241c0-.814.147-1.593.405-2.32H27.8c-.64 0-1.16-.52-1.16-1.16v-9.28c0-.64.52-1.16 1.16-1.16h16.239c.64 0 1.16.52 1.16 1.16l.002 5.8c.79 0 1.566.142 2.317.413v-7.372a2.32 2.32 0 0 0-2.32-2.32H26.64zm18.325 11.606c-.29.015-.589.058-.89.134-1.815.453-3.232 2.015-3.475 3.871a4.65 4.65 0 0 0 .373 2.533l-2.254 2.254a1.641 1.641 0 0 0 2.32 2.32l2.252-2.252c.759.343 1.627.491 2.537.372 1.856-.244 3.418-1.66 3.872-3.476.15-.603.174-1.186.097-1.737-.082-.597-.83-.832-1.257-.406l-1.022 1.02a1.641 1.641 0 0 1-2.32-2.32l1.022-1.022c.427-.427.19-1.172-.408-1.255a4.455 4.455 0 0 0-.847-.036z"/>
    </g>
</svg>
