<svg xmlns="http://www.w3.org/2000/svg" width="72" height="72" viewBox="0 0 72 72">
    <defs>
        <linearGradient id="a" x1="18.896%" x2="88.005%" y1="10.373%" y2="100%">
            <stop offset="0%" stop-color="#EAF1FF"/>
            <stop offset="100%" stop-color="#E1E8F5"/>
        </linearGradient>
    </defs>
    <g fill="none" fill-rule="evenodd">
        <rect width="72" height="72" fill="url(#a)" rx="36"/>
        <path fill="#1249BD" fill-rule="nonzero" d="M23.458 23.097c-.769 0-1.393.625-1.393 1.394v13.935c0 .77.624 1.393 1.393 1.393h25.084c.769 0 1.393-.624 1.393-1.393V24.49c0-.77-.624-1.394-1.393-1.394H23.458zm2.665 2.787h19.754a2.09 2.09 0 0 0 1.271 1.271v8.606a2.09 2.09 0 0 0-1.27 1.271H26.122a2.09 2.09 0 0 0-1.271-1.27v-8.607a2.09 2.09 0 0 0 1.27-1.27zM36 27.278a4.18 4.18 0 1 0 0 8.36 4.18 4.18 0 0 0 0-8.36zm-6.968 2.787a1.393 1.393 0 1 0 0 2.786 1.393 1.393 0 0 0 0-2.786zm13.936 0a1.393 1.393 0 1 0-.001 2.786 1.393 1.393 0 0 0 0-2.786zm-19.51 11.148a1.394 1.394 0 1 0 0 2.787h25.084a1.394 1.394 0 1 0 0-2.787H23.458zm0 4.18a1.394 1.394 0 1 0 0 2.788h25.084a1.394 1.394 0 1 0 0-2.787H23.458z"/>
    </g>
</svg>
