<svg xmlns="http://www.w3.org/2000/svg" width="72" height="72" viewBox="0 0 72 72">
    <defs>
        <linearGradient id="a" x1="10.536%" x2="92.974%" y1="9.646%" y2="100%">
            <stop offset="0%" stop-color="#FCF0F6"/>
            <stop offset="100%" stop-color="#F2E6EC"/>
        </linearGradient>
    </defs>
    <g fill="none" fill-rule="evenodd">
        <rect width="72" height="72" fill="url(#a)" rx="36"/>
        <path fill="#E20071" fill-rule="nonzero" d="M36.467 22a4.18 4.18 0 1 0 0 8.361 4.18 4.18 0 0 0 0-8.361zm0 9.755c-5.209 0-8.66 2.86-10.157 4.7-.538.66-.352 1.64.38 2.071a1.381 1.381 0 0 0 1.778-.32c.496-.611 1.388-1.149 2.422-1.868v3.372c-1.31.767-2.745 2.035-2.8 3.93-.059 2.001 1.372 4.188 2.392 5.637a1.388 1.388 0 0 0 2.011.27 1.385 1.385 0 0 0 .272-1.865c-.988-1.407-1.92-2.923-1.886-3.957.014-.335.222-.654.528-.961.683 1.045 2.3 2.926 5.06 2.926s4.377-1.88 5.06-2.926c.306.293.514.613.514.947 0 1.08-.912 2.635-1.84 3.95a1.382 1.382 0 0 0 .25 1.858c.62.519 1.555.409 2.023-.25.999-1.406 2.354-3.58 2.354-5.558 0-1.95-1.45-3.232-2.787-3.998v-3.375c1.034.72 1.913 1.26 2.409 1.867.433.53 1.18.665 1.772.321.737-.428.924-1.41.386-2.071-1.5-1.84-4.936-4.7-10.141-4.7z"/>
    </g>
</svg>
