<svg xmlns="http://www.w3.org/2000/svg" width="72" height="72" viewBox="0 0 72 72">
    <defs>
        <linearGradient id="a" x1="10.536%" x2="92.974%" y1="9.646%" y2="100%">
            <stop offset="0%" stop-color="#FCF0F6"/>
            <stop offset="100%" stop-color="#F2E6EC"/>
        </linearGradient>
        <linearGradient id="b" x1="50%" x2="50%" y1="0%" y2="100%">
            <stop offset="0%" stop-color="#F300AA"/>
            <stop offset="100%" stop-color="#E20071"/>
        </linearGradient>
    </defs>
    <g fill="none" fill-rule="evenodd">
        <rect width="72" height="72" fill="url(#a)" rx="36"/>
        <path fill="url(#b)" fill-rule="nonzero" d="M7.032.065c-.769 0-1.393.624-1.393 1.393v2.787c0 .77.624 1.394 1.393 1.394h13.936c.769 0 1.393-.624 1.393-1.394V1.458c0-.769-.624-1.393-1.393-1.393H7.032zm-2.787 8.36c-2.299 0-4.18 1.882-4.18 4.181v5.575a2.786 2.786 0 0 0 2.787 2.787h2.787v2.787a2.786 2.786 0 0 0 2.787 2.787h11.148a2.786 2.786 0 0 0 2.787-2.787v-2.787h2.787a2.786 2.786 0 0 0 2.787-2.787v-5.575c0-2.299-1.881-4.18-4.18-4.18H4.245zm19.51 2.788c.836 0 1.393.557 1.393 1.393 0 .837-.557 1.394-1.393 1.394s-1.394-.557-1.394-1.394c0-.836.558-1.393 1.394-1.393zM9.123 16.787h9.754c.385 0 .697.312.697.697v5.574a.697.697 0 0 1-.697.697H9.123a.697.697 0 0 1-.697-.697v-5.574c0-.385.312-.697.697-.697z" transform="translate(22 23)"/>
    </g>
</svg>
