<svg xmlns="http://www.w3.org/2000/svg" width="72" height="72" viewBox="0 0 72 72">
    <defs>
        <linearGradient id="a" x1="18.896%" x2="88.005%" y1="10.373%" y2="100%">
            <stop offset="0%" stop-color="#EAF1FF"/>
            <stop offset="100%" stop-color="#E1E8F5"/>
        </linearGradient>
    </defs>
    <g fill="none" fill-rule="evenodd">
        <rect width="72" height="72" fill="url(#a)" rx="36"/>
        <path fill="#1249BD" fill-rule="nonzero" d="M34.73 25.089a2.54 2.54 0 0 0-2.54 2.54v3.84c1.534 1.16 2.54 2.98 2.54 5.05a6.349 6.349 0 0 1-1.203 3.736c2.294 1.211 3.743 3.244 3.743 5.643v2.051h10.16a2.54 2.54 0 0 0 2.54-2.54V27.63a2.54 2.54 0 0 0-2.54-2.54h-12.7zm3.175 5.08h1.27c.35 0 .635.284.635.635v1.27c0 .35-.284.635-.635.635h-1.27a.635.635 0 0 1-.635-.635v-1.27c0-.35.285-.635.635-.635zm5.08 0h1.27c.35 0 .635.284.635.635v1.27c0 .35-.284.635-.635.635h-1.27a.635.635 0 0 1-.635-.635v-1.27c0-.35.285-.635.635-.635zm-14.605 2.54a3.81 3.81 0 1 0 0 7.62 3.81 3.81 0 0 0 0-7.62zm9.525 2.54h1.27c.35 0 .635.284.635.635v1.27c0 .35-.284.635-.635.635h-1.27a.635.635 0 0 1-.635-.635v-1.27c0-.35.285-.635.635-.635zm5.08 0h1.27c.35 0 .635.284.635.635v1.27c0 .35-.284.635-.635.635h-1.27a.635.635 0 0 1-.635-.635v-1.27c0-.35.285-.635.635-.635zm-5.08 5.08h1.27c.35 0 .635.285.635.635v1.27c0 .35-.284.635-.635.635h-1.27a.635.635 0 0 1-.635-.635v-1.27c0-.35.285-.635.635-.635zm5.08 0h1.27c.35 0 .635.285.635.635v1.27c0 .35-.284.635-.635.635h-1.27a.635.635 0 0 1-.635-.635v-1.27c0-.35.285-.635.635-.635zM28.38 41.6c-3.621 0-6.35 1.849-6.35 4.299v.781c0 .701.569 1.27 1.27 1.27h10.16a1.27 1.27 0 0 0 1.27-1.27v-.781c0-2.45-2.73-4.299-6.35-4.299z"/>
    </g>
</svg>
