<svg xmlns="http://www.w3.org/2000/svg" width="72" height="72" viewBox="0 0 72 72">
    <defs>
        <linearGradient id="a" x1="10.536%" x2="92.974%" y1="9.646%" y2="100%">
            <stop offset="0%" stop-color="#FCF0F6"/>
            <stop offset="100%" stop-color="#F2E6EC"/>
        </linearGradient>
    </defs>
    <g fill="none" fill-rule="evenodd">
        <rect width="72" height="72" fill="url(#a)" rx="36"/>
        <path fill="#E20071" fill-rule="nonzero" d="M26.738 22.108c-2.539 0-4.63 2.091-4.63 4.63v20.067a3.086 3.086 0 0 0 3.087 3.087h21.61a3.086 3.086 0 0 0 3.087-3.087V31.37a3.086 3.086 0 0 0-3.087-3.087H26.738a1.52 1.52 0 0 1-1.543-1.544 1.52 1.52 0 0 1 1.543-1.543h20.067a1.544 1.544 0 1 0 0-3.087H26.738zm18.524 15.436a1.544 1.544 0 1 1-.002 3.088 1.544 1.544 0 0 1 .002-3.088z"/>
    </g>
</svg>
