<svg xmlns="http://www.w3.org/2000/svg" width="72" height="72" viewBox="0 0 72 72">
    <defs>
        <linearGradient id="a" x1="18.896%" x2="88.005%" y1="10.373%" y2="100%">
            <stop offset="0%" stop-color="#EAF1FF"/>
            <stop offset="100%" stop-color="#E1E8F5"/>
        </linearGradient>
    </defs>
    <g fill="none" fill-rule="evenodd">
        <rect width="72" height="72" fill="url(#a)" rx="36"/>
        <path fill="#1249BD" fill-rule="nonzero" d="M36 22.065c-7.696 0-13.935 6.239-13.935 13.935 0 7.696 6.239 13.935 13.935 13.935h11.148a2.786 2.786 0 0 0 2.787-2.787V36c0-7.696-6.239-13.935-13.935-13.935zm0 2.787c6.157 0 11.148 4.991 11.148 11.148S42.157 47.148 36 47.148 24.852 42.157 24.852 36 29.843 24.852 36 24.852zm0 5.574c-.091 0-.183.01-.272.027-2.95.145-5.302 2.562-5.302 5.547A5.574 5.574 0 0 0 36 41.574c2.981 0 5.394-2.347 5.544-5.29 0-.003.003-.004.003-.006a1.394 1.394 0 0 0-1.549-1.658l-.013-.014h-1.198c-.77 0-1.393-.624-1.393-1.393v-1.198L37.38 32A1.394 1.394 0 0 0 36 30.426z"/>
    </g>
</svg>
