<svg xmlns="http://www.w3.org/2000/svg" width="72" height="72" viewBox="0 0 72 72">
    <defs>
        <linearGradient id="a" x1="10.536%" x2="92.974%" y1="9.646%" y2="100%">
            <stop offset="0%" stop-color="#FCF0F6"/>
            <stop offset="100%" stop-color="#F2E6EC"/>
        </linearGradient>
    </defs>
    <g fill="none" fill-rule="evenodd">
        <rect width="72" height="72" fill="url(#a)" rx="36"/>
        <path fill="#E20071" fill-rule="nonzero" d="M42.574 22.065a2.787 2.787 0 1 0 0 5.574 2.787 2.787 0 0 0 0-5.574zm-3.116 6.967l-6.383 3.193-.694 2.08-.002-.003-1.941 5.68-2.967-1.14a1.392 1.392 0 0 0-1.788.827l-2.534 6.693a1.392 1.392 0 0 0 .828 1.788l.498.237a4.17 4.17 0 0 1 4.164-4.026c1.014 0 1.933.377 2.656.977l3.234-8.892.002-.005.82-2.24 2.474-1.236-3.236 15.29a1.392 1.392 0 0 0 1.36 1.68h.006a1.39 1.39 0 0 0 1.36-1.102l1.69-7.994c.668.793 1.688 2.078 2.173 2.597v5.111a1.393 1.393 0 0 0 1.393 1.388h.006c.768 0 1.39-.623 1.39-1.39v-6l-1.635-2.452 1.16-4.871a7.028 7.028 0 0 0 1.425 1.804 6.813 6.813 0 0 0 2.875 1.543 1.4 1.4 0 0 0 1.75-1.352c0-.657-.471-1.189-1.105-1.356a3.976 3.976 0 0 1-1.66-.912c-.707-.63-1.23-1.61-1.552-2.904-.596-2.384-2.906-3.013-4.044-3.013h-1.723zm-10.82 18.116a1.394 1.394 0 1 0 0 2.787 1.394 1.394 0 0 0 0-2.787z"/>
    </g>
</svg>
