<svg xmlns="http://www.w3.org/2000/svg" width="72" height="72" viewBox="0 0 72 72">
    <defs>
        <linearGradient id="a" x1="10.536%" x2="92.974%" y1="9.646%" y2="100%">
            <stop offset="0%" stop-color="#FCF0F6"/>
            <stop offset="100%" stop-color="#F2E6EC"/>
        </linearGradient>
    </defs>
    <g fill="none" fill-rule="evenodd">
        <rect width="72" height="72" fill="url(#a)" rx="36"/>
        <path fill="#E20071" fill-rule="nonzero" d="M27.574 23C24.512 23 22 25.512 22 28.574c0 2.579 1.79 4.746 4.18 5.373v6.935c-.024.15-.024.304 0 .454v5.354c0 .77.624 1.393 1.394 1.393h4.18a1.394 1.394 0 1 0 0-2.787h-2.786V42.51h1.393a1.394 1.394 0 1 0 0-2.787h-1.393v-5.775c2.39-.627 4.18-2.794 4.18-5.373 0-3.062-2.512-5.574-5.574-5.574zm0 2.787a2.766 2.766 0 0 1 2.787 2.787 2.758 2.758 0 0 1-2.662 2.774 1.394 1.394 0 0 0-.253 0 2.758 2.758 0 0 1-2.659-2.774 2.766 2.766 0 0 1 2.787-2.787zm9.755 1.394c-.77 0-1.394.624-1.394 1.393v4.18c0 .77.624 1.394 1.394 1.394h11.148c.77 0 1.393-.624 1.393-1.393v-4.18c0-.77-.624-1.394-1.393-1.394H37.329zm0 9.754c-.77 0-1.394.624-1.394 1.394v4.18c0 .77.624 1.394 1.394 1.394h11.148c.77 0 1.393-.625 1.393-1.394v-4.18c0-.77-.624-1.394-1.393-1.394H37.329z"/>
    </g>
</svg>
