<svg xmlns="http://www.w3.org/2000/svg" width="25" height="24" viewBox="0 0 25 24">
    <path fill="#FFF" fill-rule="nonzero" d="M11.818 2c-2.75 0-5 2.25-5 5 0 .558.104 1.082.267 1.559a.91.91 0 1 0 1.722-.586c-.109-.32-.17-.64-.17-.973a3.169 3.169 0 0 1 3.181-3.182A3.169 3.169 0 0 1 15 7c0 .333-.062.654-.17.973a.91.91 0 1 0 1.722.586c.162-.477.266-1.001.266-1.559 0-2.75-2.25-5-5-5zm0 3.636c-.753 0-1.363.611-1.363 1.364v8.778l-2.586-1.31c-.51-.26-1.125-.2-1.576.155a1.455 1.455 0 0 0-.132 2.175l4.404 4.403a2.726 2.726 0 0 0 1.928.799h5.234a2.727 2.727 0 0 0 2.728-2.727v-4.4a1.82 1.82 0 0 0-1.483-1.788L13.182 12V7c0-.753-.611-1.364-1.364-1.364z"/>
</svg>
