<svg xmlns="http://www.w3.org/2000/svg" width="25" height="24" viewBox="0 0 25 24">
    <path fill="#FFF" fill-rule="nonzero" d="M8.05 2.023a.996.996 0 0 0-.994.996v.995H6.06c-1.095 0-1.99.896-1.99 1.99V19.94c0 1.095.895 1.99 1.99 1.99h13.935c1.095 0 1.991-.895 1.991-1.99V6.005c0-1.095-.896-1.991-1.99-1.991H19v-.995a.996.996 0 0 0-1.99 0v.995H9.045v-.995a.996.996 0 0 0-.995-.996zM6.06 8.991h13.935V19.94H6.06V8.99zm8.959 4.977a.996.996 0 0 0-.996.995v1.99c0 .55.446.996.996.996h1.99c.55 0 .996-.446.996-.995v-1.991a.996.996 0 0 0-.996-.995h-1.99z"/>
</svg>
