<svg xmlns="http://www.w3.org/2000/svg" width="24" height="24" viewBox="0 0 24 24">
    <path fill="#0F141A" fill-rule="nonzero" d="M11.055 4.055c-3.663.398-6.61 3.345-7.008 6.928-.398 3.742 1.752 7.087 5.017 8.361.239.08.478-.08.478-.398v-1.274s-.319.08-.717.08c-1.115 0-1.592-.956-1.672-1.514-.08-.318-.239-.557-.478-.796-.239-.08-.318-.08-.318-.16 0-.158.239-.158.318-.158.478 0 .876.557 1.035.796.398.637.876.796 1.115.796.319 0 .558-.08.717-.159.08-.557.318-1.115.796-1.433-1.831-.399-3.185-1.434-3.185-3.186 0-.875.398-1.751.955-2.388-.08-.16-.159-.558-.159-1.115 0-.319 0-.797.24-1.274 0 0 1.114 0 2.229 1.035.398-.16.955-.239 1.513-.239.557 0 1.115.08 1.592.239 1.035-1.035 2.23-1.035 2.23-1.035.16.477.16.955.16 1.274 0 .637-.08.955-.16 1.115.557.637.955 1.433.955 2.388 0 1.752-1.353 2.787-3.185 3.186.478.398.797 1.114.797 1.831v2.07c0 .24.238.478.557.399 2.946-1.195 5.017-4.061 5.017-7.406 0-4.778-4.061-8.52-8.84-7.963z"/>
</svg>
