<svg xmlns="http://www.w3.org/2000/svg" xmlns:xlink="http://www.w3.org/1999/xlink" width="24" height="24" viewBox="0 0 24 24">
    <defs>
        <rect id="b" width="368" height="240" rx="8"/>
        <filter id="a" width="107.1%" height="110.8%" x="-3.5%" y="-4.6%" filterUnits="objectBoundingBox">
            <feMorphology in="SourceAlpha" operator="dilate" radius="1" result="shadowSpreadOuter1"/>
            <feOffset dy="2" in="shadowSpreadOuter1" result="shadowOffsetOuter1"/>
            <feGaussianBlur in="shadowOffsetOuter1" result="shadowBlurOuter1" stdDeviation="3"/>
            <feColorMatrix in="shadowBlurOuter1" values="0 0 0 0 0.282 0 0 0 0 0.290181818 0 0 0 0 0.3 0 0 0 0.2 0"/>
        </filter>
    </defs>
    <g fill="none" fill-rule="evenodd">
        <g transform="translate(-48 -208)">
            <use fill="#000" filter="url(#a)" xlink:href="#b"/>
            <use fill="#FFF" xlink:href="#b"/>
        </g>
        <path fill="#0076B7" fill-rule="nonzero" d="M17.542 5H6.254C5.561 5 5 5.561 5 6.254v11.288c0 .693.561 1.254 1.254 1.254h11.288c.693 0 1.254-.561 1.254-1.254V6.254c0-.693-.561-1.254-1.254-1.254zM9.36 16.288H7.51v-5.953h1.85v5.953zm-.944-6.804a1.079 1.079 0 1 1 0-2.157 1.079 1.079 0 0 1 0 2.157zm7.873 6.804h-1.849v-2.895c0-.69-.012-1.578-.961-1.578-.963 0-1.11.751-1.11 1.528v2.945h-1.85v-5.953h1.775v.814h.026c.247-.468.85-.962 1.75-.962 1.873 0 2.219 1.233 2.219 2.836v3.265z"/>
    </g>
</svg>
