<svg xmlns="http://www.w3.org/2000/svg" width="25" height="24" viewBox="0 0 25 24">
    <path fill="#FFF" fill-rule="nonzero" d="M20.2 5h-6.3v3.5h1.125c.273 0 .52.16.624.405a.642.642 0 0 1-.147.715l-2.025 1.969a.689.689 0 0 1-.955 0L10.498 9.62a.644.644 0 0 1-.147-.715.675.675 0 0 1 .624-.405H12.1V5H5.8C4.805 5 4 5.783 4 6.75v10.5c0 .967.805 1.75 1.8 1.75h14.4c.994 0 1.8-.783 1.8-1.75V6.75C22 5.783 21.194 5 20.2 5zm-1.8 11.375a.888.888 0 0 1-.9.875h-9a.888.888 0 0 1-.9-.875V15.5c0-.483.403-.875.9-.875h9c.497 0 .9.392.9.875v.875z"/>
</svg>
