<svg xmlns="http://www.w3.org/2000/svg" width="25" height="24" viewBox="0 0 25 24">
    <path fill="#FFF" fill-rule="nonzero" d="M19.222 4.8h-3.719C15.136 3.753 14.16 3 13 3c-1.16 0-2.136.753-2.503 1.8h-3.72C5.797 4.8 5 5.606 5 6.6v12.6c0 .995.796 1.8 1.778 1.8h12.444c.982 0 1.778-.806 1.778-1.8V6.6c0-.995-.796-1.8-1.778-1.8zM9 16.5h-.889a.447.447 0 0 1-.444-.45v-.9c0-.248.199-.45.444-.45H9c.245 0 .444.202.444.45v.9c0 .248-.199.45-.444.45zm-.444-4.05a1.342 1.342 0 0 1-1.334-1.35c0-.745.598-1.35 1.334-1.35.736 0 1.333.605 1.333 1.35 0 .745-.597 1.35-1.333 1.35zM13 4.8c.49 0 .889.403.889.9s-.398.9-.889.9a.895.895 0 0 1-.889-.9c0-.497.398-.9.889-.9zm4.444 11.7H13a.895.895 0 0 1-.889-.9c0-.497.398-.9.889-.9h4.444c.491 0 .89.403.89.9s-.399.9-.89.9zm0-4.5H13a.895.895 0 0 1-.889-.9c0-.497.398-.9.889-.9h4.444c.491 0 .89.403.89.9s-.399.9-.89.9z"/>
</svg>
