<?xml version="1.0" encoding="UTF-8"?>
<svg width="102px" height="111px" viewBox="0 0 102 111" version="1.1" xmlns="http://www.w3.org/2000/svg" xmlns:xlink="http://www.w3.org/1999/xlink">
    <!-- Generator: Sketch 54 (76480) - https://sketchapp.com -->
    <title>brain</title>
    <desc>Created with Sketch.</desc>
    <g id="Page-1" stroke="none" stroke-width="1" fill="none" fill-rule="evenodd">
        <g id="brain" fill-rule="nonzero">
            <path d="M4,64 C1.8,64 0,62.2 0,60 C0,57.8 1.8,56 4,56 C6.2,56 8,57.8 8,60 C8,62.2 6.2,64 4,64 Z M4,57.9 C2.8,57.9 1.9,58.9 1.9,60 C1.9,61.2 2.8,62.1 4,62.1 C5.2,62.1 6.1,61.1 6.1,60 C6.1,58.8 5.2,57.9 4,57.9 Z" id="Shape" fill="#FFFFFF"></path>
            <path d="M97.9,74.9 C95.7,74.9 94,73.1 94,71 C94,68.8 95.8,67.1 97.9,67.1 C100.1,67.1 101.8,68.9 101.8,71 C101.9,73.1 100.1,74.9 97.9,74.9 Z M97.9,68.8 C96.7,68.8 95.8,69.7 95.8,70.9 C95.8,72.1 96.7,73 97.9,73 C99.1,73 100,72.1 100,70.9 C100,69.8 99.1,68.8 97.9,68.8 Z" id="Shape" fill="#FFFFFF"></path>
            <path d="M41.9,110.9 C39.7,110.9 38,109.1 38,107 C38,104.8 39.8,103.1 41.9,103.1 C44.1,103.1 45.8,104.9 45.8,107 C45.9,109.1 44.1,110.9 41.9,110.9 Z M41.9,104.8 C40.7,104.8 39.8,105.7 39.8,106.9 C39.8,108.1 40.7,109 41.9,109 C43.1,109 44,108.1 44,106.9 C44,105.8 43.1,104.8 41.9,104.8 Z" id="Shape" fill="#FFFFFF"></path>
            <path d="M35.7,9.1 C33.3,9.1 31.4,7.2 31.4,4.8 C31.4,2.4 33.3,0.5 35.7,0.5 C38.1,0.5 40,2.4 40,4.8 C39.9,7.2 38,9.1 35.7,9.1 Z M35.7,2.6 C34.4,2.6 33.4,3.6 33.4,4.9 C33.4,6.2 34.4,7.2 35.7,7.2 C37,7.2 38,6.2 38,4.9 C37.9,3.6 36.9,2.6 35.7,2.6 Z" id="Shape" fill="#FFFFFF"></path>
            <path d="M84.2,26.1 C84.2,25.7 84.6,25.3 85.2,25.2 L87,25 C87.5,24.9 88.1,24.4 88.1,23.9 L88.4,22 C88.5,21.5 88.9,21 89.3,21 C89.7,21 90.1,21.4 90.2,22 L90.5,23.9 C90.6,24.4 91.1,25 91.6,25 L93.5,25.3 C94,25.4 94.5,25.8 94.5,26.2 C94.5,26.6 94.1,27 93.5,27.1 L91.6,27.4 C91.1,27.5 90.5,28 90.5,28.5 L90.2,30.4 C90.1,30.9 89.7,31.4 89.3,31.4 C88.9,31.4 88.5,31 88.4,30.4 L88.1,28.3 C88,27.8 87.5,27.3 87,27.2 L85.2,27.1 C84.6,26.9 84.2,26.5 84.2,26.1 Z" id="Path" fill="#FFFFFF"></path>
            <path d="M6.8,88.5 C6.8,88.1 7.2,87.7 7.8,87.6 L9.7,87.3 C10.2,87.2 10.8,86.7 10.8,86.2 L11.1,84.3 C11.2,83.8 11.6,83.3 12,83.3 C12.4,83.3 12.8,83.7 12.9,84.3 L13.2,86.2 C13.3,86.7 13.8,87.3 14.3,87.3 L16.2,87.6 C16.7,87.7 17.2,88.1 17.2,88.5 C17.2,88.9 16.8,89.3 16.2,89.4 L14.3,89.7 C13.8,89.8 13.2,90.3 13.2,90.8 L12.9,92.7 C12.8,93.2 12.4,93.7 12,93.7 C11.6,93.7 11.2,93.3 11.1,92.7 L10.8,90.6 C10.7,90.1 10.2,89.6 9.7,89.5 L7.9,89.4 C7.3,89.2 6.8,88.9 6.8,88.5 Z" id="Path" fill="#FFFFFF"></path>
            <path d="M73.2,96.1 C73.2,95.7 73.6,95.3 74.2,95.2 L76.1,94.9 C76.6,94.8 77.2,94.3 77.2,93.8 L77.5,91.9 C77.6,91.4 78,90.9 78.4,90.9 C78.8,90.9 79.2,91.3 79.3,91.9 L79.6,93.8 C79.7,94.3 80.2,94.9 80.7,94.9 L82.6,95.2 C83.1,95.3 83.6,95.7 83.6,96.1 C83.6,96.5 83.2,96.9 82.6,97 L80.7,97.3 C80.2,97.4 79.6,97.9 79.6,98.4 L79.3,100.3 C79.2,100.8 78.8,101.3 78.4,101.3 C78,101.3 77.6,100.9 77.5,100.3 L77.2,98.2 C77.1,97.7 76.6,97.2 76.1,97.1 L74.3,97 C73.7,96.9 73.2,96.5 73.2,96.1 Z" id="Path" fill="#FFFFFF"></path>
            <path d="M31.3,71.4 L31.3,86.1 C31.3,87.6 32.5,88.9 34,88.9 L62.7,98.9 C64.2,98.9 65.4,97.7 65.4,96.1 L65.4,80.4 C65.4,80.4 69.6,80.8 73.6,80.4 C77.6,80 80.6,75.8 80.6,72.8 C80.6,69.8 81.2,63.3 81.2,63.3 L88.3,59.2 C89.7,58.4 90.1,56.7 89.3,55.3 C89.3,55.3 84.9,47.7 82.4,43.3 C81.9,42.5 81.5,41 81.2,39.7 C81.1,38.7 80.9,37.8 80.7,36.9 L80.7,36.7 L80.7,36.7 C77.3,22.5 64.4,11.9 49.1,11.9 C31.1,11.9 16.6,26.4 16.6,44.4 C16.7,55.6 22.5,65.6 31.3,71.4 Z" id="Path" fill="#C9F1FB"></path>
            <path d="M48.4,71.8 C70.5,77.3 79.9,75 79.9,75 C79.9,75 79.2,81.2 65.1,80.3 L65.1,88 C65.1,88 56.4,86.2 46.6,81.2 C36.8,76.2 31.1,71.9 31.1,71.9 L31.9,71.5 C27.7,69 24.4,66.1 22.6,62.4 C17.4,51.9 17.1,50.4 17.1,50.4 C17.1,50.4 26.8,66.4 48.4,71.8 Z" id="Path" fill="#BCDCE9"></path>
            <path d="M63.4,100 L63.4,100 C63.2,100 62.9,100 62.7,99.9 C61,99.5 35.4,90.5 33.9,89.9 C32.9,89.5 30.5,88.6 30.5,86.2 L30.5,72.1 C21.4,65.8 16,55.5 16,44.5 C16,26 31,11 49.4,11 C59.5,11 67.8,14.3 73.9,20.8 C80.2,27.5 82.1,35.6 82,37 C81.9,38.9 82.9,43.4 83.3,44 C85.7,48.2 90.4,54.7 90.4,54.7 C90.4,54.7 90.4,54.8 90.5,54.8 C91,55.7 91.2,56.7 90.9,57.7 C90.6,58.7 90,59.5 89.1,60 L82.5,64 C82.5,65.7 82.4,70.6 81.9,73.2 C81.2,76.9 78.4,81.2 74,81.6 C72.8,81.7 71.4,81.8 70,81.8 C68.6,81.8 67.5,81.7 66.7,81.7 L66.7,96.2 C66.7,97.1 66.4,98 65.9,98.7 C65.2,99.5 64.4,100 63.4,100 Z M49.4,13 C32.1,13 18,27.1 18,44.5 C18,55.1 23.3,64.9 32.2,70.8 C32.5,71 32.6,71.3 32.6,71.6 L32.6,86.2 C32.6,86.9 33.2,87.5 34.7,88 C36.1,88.5 61.6,97.6 63.2,97.9 C63.3,97.9 63.4,97.9 63.5,97.9 L63.5,97.9 C63.8,97.9 64.1,97.7 64.3,97.4 C64.6,97 64.7,96.5 64.7,96.1 L64.7,80.6 C64.7,80.3 64.8,80.1 65,79.9 C65.2,79.7 65.5,79.6 65.8,79.6 C65.8,79.6 67.7,79.8 70,79.8 C71.4,79.8 72.7,79.7 73.8,79.6 C77.4,79.2 79.4,75.3 79.9,72.8 C80.5,70 80.5,63.5 80.5,63.5 C80.5,63.1 80.7,62.8 81,62.6 L88.1,58.5 C88.5,58.3 88.8,57.9 89,57.4 C89.1,56.9 89.1,56.4 88.8,56 C88.3,55.4 84,49.3 81.6,45.1 C81,44 79.9,39.2 80,36.9 C80,36.2 78.6,28.7 72.4,22.1 C66.7,16.1 59,13 49.4,13 Z" id="Shape" fill="#FF136B"></path>
            <path d="M25.1,35.5 C25.1,31 28.8,27.3 33.3,27.3 C33.7,27.3 34,27.3 34.4,27.4 C35.2,23.8 38.5,21.1 42.4,21.1 C42.8,21.1 43.2,21.1 43.6,21.2 C44.6,20.3 45.9,19.8 47.4,19.8 C48.5,19.8 49.5,20.1 50.4,20.7 C51.8,20.1 53.3,19.7 54.9,19.7 C58.4,19.7 61.4,21.4 63.3,23.9 C63.5,23.9 63.8,23.8 64,23.8 C66.1,23.8 67.9,25.4 68.1,27.5 C70.5,28.9 72.1,31.5 72.1,34.5 C72.1,37 71,39.3 69.2,40.8 C69.2,41 69.2,41.2 69.2,41.3 C69.2,44.2 67,46.6 64.2,47 C62.9,49.8 60.1,51.7 56.8,51.7 C55.7,51.7 54.7,51.5 53.8,51.1 C53,52.1 51.9,52.7 50.6,52.7 C49.4,52.7 48.3,52.1 47.5,51.3 C46.6,51.7 45.6,51.9 44.5,51.9 C43.8,51.9 43.1,51.8 42.4,51.6 C42,52.5 41.5,53.8 41.5,55.5 C41.5,58.8 40.6,59.5 39.3,57.4 C38.3,55.8 37.2,53.9 36.5,52 C36.2,52 35.9,52.1 35.6,52.1 C31.1,52.1 27.4,48.4 27.4,43.9 C27.4,43.1 27.5,42.3 27.8,41.5 C26.1,40 25.1,37.9 25.1,35.5 Z" id="Path" fill="#FFFFFF"></path>
            <path d="M41.7,37.3 L42.2,39.1 L41,40.3 C41.2,40.8 41.5,41.3 41.8,41.7 L43.4,41.3 L44.7,42.6 L44.3,44.2 C44.8,44.5 45.2,44.8 45.7,45 L46.9,43.8 L48.7,44.3 L49.1,45.9 C49.6,45.9 50.1,45.9 50.6,45.9 L50.7,45.9 L51.1,44.3 L52.9,43.8 L54.1,45 C54.6,44.8 55.1,44.5 55.5,44.2 L55.1,42.6 L56.4,41.3 L58,41.7 C58.3,41.2 58.6,40.8 58.8,40.3 L57.9,39 L58.4,37.2 L60,36.8 C60,36.3 60,35.7 60,35.1 L58.4,34.7 L57.9,32.9 L59.1,31.7 C58.9,31.2 58.6,30.7 58.3,30.3 L56.7,30.7 L55.4,29.4 L55.8,27.8 C55.3,27.5 54.9,27.2 54.4,27 L53,28.1 L51.2,27.6 L50.8,26 C50.3,26 49.8,26 49.3,26 L49.2,26 L48.8,27.6 L47,28.1 L45.7,27 C45.2,27.2 44.7,27.5 44.3,27.8 L44.7,29.4 L43.4,30.7 L41.8,30.3 C41.5,30.8 41.2,31.2 41,31.7 L42.2,32.9 L41.7,34.7 L40,35.2 C40,35.7 40,36.3 40,36.9 L41.7,37.3 Z M45.2,34.7 C45.9,32 48.6,30.5 51.3,31.2 C54,31.9 55.5,34.7 54.8,37.3 C54.1,40 51.4,41.5 48.7,40.8 C46.1,40.1 44.5,37.4 45.2,34.7 Z" id="Shape" fill="#FF136B"></path>
            <path d="M40.6,59.6 C39.6,59.6 38.9,58.7 38.5,58 C37.4,56.3 36.5,54.6 35.9,53.1 C35.8,53.1 35.7,53.1 35.6,53.1 C30.5,53.1 26.4,49 26.4,43.9 C26.4,43.2 26.5,42.5 26.6,41.8 C25,40.1 24.1,37.9 24.1,35.5 C24.1,30.4 28.2,26.3 33.3,26.3 C33.4,26.3 33.5,26.3 33.7,26.3 C34.9,22.6 38.4,20 42.4,20 C42.7,20 43,20 43.3,20 C45.3,18.5 48.2,18.2 50.5,19.3 C51.9,18.7 53.4,18.4 54.9,18.4 C58.4,18.4 61.6,19.9 63.8,22.6 C63.9,22.6 64,22.6 64.1,22.6 C66.6,22.6 68.6,24.3 69.1,26.7 C71.7,28.4 73.2,31.2 73.2,34.3 C73.2,36.8 72.1,39.2 70.3,41 C70.3,41 70.3,41.1 70.3,41.1 C70.3,44.3 68,47 65,47.7 C63.4,50.7 60.3,52.5 56.9,52.5 C56,52.5 55.1,52.4 54.2,52.1 C53.2,53 52,53.5 50.7,53.5 C49.5,53.5 48.3,53 47.3,52.2 C45.9,52.6 44.5,52.7 43.1,52.5 C42.8,53.4 42.6,54.3 42.6,55.2 C42.5,56.5 42.5,59.6 40.6,59.6 Z M36.5,51 C36.9,51 37.3,51.3 37.4,51.6 C38,53.2 38.9,54.9 40.1,56.8 C40.2,56.9 40.3,57.1 40.3,57.1 C40.4,56.8 40.4,56.2 40.4,55.4 C40.4,53.9 40.7,52.5 41.4,51.1 C41.6,50.7 42.1,50.4 42.6,50.6 C44.2,51 45.6,50.9 47.1,50.3 C47.5,50.1 47.9,50.3 48.2,50.6 C48.8,51.3 49.7,51.7 50.5,51.7 C51.5,51.7 52.3,51.3 52.9,50.5 C53.2,50.1 53.6,50 54.1,50.2 C55,50.5 55.8,50.7 56.7,50.7 C59.5,50.7 62,49.1 63.2,46.5 C63.3,46.2 63.6,46 64,45.9 C66.4,45.6 68.1,43.6 68.1,41.2 C68.1,41 68.1,40.9 68.1,40.7 C68.1,40.4 68.2,40 68.5,39.8 C70.1,38.4 71.1,36.4 71.1,34.3 C71.1,31.8 69.8,29.5 67.6,28.1 C67.3,27.9 67.2,27.7 67.1,27.3 C66.9,25.7 65.6,24.5 64,24.5 C63.8,24.5 63.7,24.5 63.4,24.6 C63,24.7 62.6,24.5 62.4,24.2 C60.6,21.8 57.8,20.4 54.8,20.4 C53.4,20.4 52,20.7 50.8,21.3 C50.5,21.4 50.1,21.4 49.9,21.2 C48.2,20.1 45.8,20.3 44.3,21.7 C44.1,21.9 43.8,22 43.5,21.9 C43.1,21.8 42.8,21.8 42.4,21.8 C39,21.8 36.2,24.1 35.4,27.4 C35.3,27.9 34.8,28.2 34.3,28.2 C33.9,28.1 33.6,28.1 33.3,28.1 C29.3,28.1 26.1,31.3 26.1,35.3 C26.1,37.3 26.9,39.2 28.4,40.5 C28.7,40.8 28.8,41.2 28.7,41.5 C28.5,42.2 28.4,42.9 28.4,43.6 C28.4,47.6 31.6,50.8 35.6,50.8 C35.9,50.8 36.2,50.8 36.4,50.7 C36.4,51 36.4,51 36.5,51 Z" id="Shape" fill="#0C508E"></path>
            <path d="M25.9,56 C25.6,56 25.3,55.9 25.1,55.6 C20.4,50.2 21.1,41.3 21.1,40.9 C21.2,40.3 21.7,39.9 22.2,40 C22.8,40 23.2,40.5 23.2,41.1 C23.2,41.2 22.5,49.5 26.7,54.3 C27.1,54.7 27,55.4 26.6,55.8 C26.4,55.9 26.2,56 25.9,56 Z" id="Path" fill="#FFFFFF" opacity="0.5"></path>
        </g>
    </g>
</svg>