<?xml version="1.0" encoding="UTF-8"?>
<svg width="609px" height="164px" viewBox="0 0 609 164" version="1.1" xmlns="http://www.w3.org/2000/svg" xmlns:xlink="http://www.w3.org/1999/xlink">
    <!-- Generator: Sketch 55.1 (78136) - https://sketchapp.com -->
    <title>Color Copy</title>
    <desc>Created with Sketch.</desc>
    <g id="Page-1" stroke="none" stroke-width="1" fill="none" fill-rule="evenodd">
        <g id="Color-Copy" fill="#FFFFFF" fill-rule="nonzero">
            <g id="Mask-Copy" transform="translate(0.000000, 0.397727)">
                <g id="Group" transform="translate(0.000000, 0.500000)">
                    <path d="M49.9288081,1.42108547e-14 C46.7763473,1.42108547e-14 43.5417222,1.09473543 41.0340772,3.51402676 C38.5265617,5.9332996 36.8832362,9.77269578 36.8832362,14.1199604 L36.8832362,16.1644713 C35.1602983,15.3863585 33.3117543,15.0144443 31.4870578,15.0144443 C28.3352535,15.0144443 25.1593354,16.1091798 22.6517551,18.5284526 C20.1441767,20.9477439 18.5009159,24.7232497 18.5009159,29.0705144 L18.5009159,37.5041564 C16.7654644,36.6996738 14.8958209,36.2902206 13.0455072,36.2902206 C9.88787045,36.2902206 6.66575711,37.3867867 4.15083917,39.8042288 C1.63585649,42.221671 -7.10542736e-15,46.0592179 -7.10542736e-15,50.410181 L-7.10542736e-15,108.614989 C-7.10542736e-15,126.3105 6.22576778,140.093071 15.6546464,149.186032 C25.0834602,158.278993 37.5487576,162.730979 49.9288081,162.730979 C62.3088604,162.730979 74.7153176,158.278993 84.1436082,149.186032 C93.5724202,140.093071 99.8576199,126.3105 99.8576199,108.614989 L99.8576199,72.7720938 C99.8576199,68.412236 98.2130481,64.597194 95.7067789,62.1661602 C93.2005097,59.7351263 89.9689635,58.6521334 86.8120461,58.6521334 C84.9731329,58.6521334 83.1304842,59.0149494 81.4160009,59.8021789 L81.4160009,29.006624 C81.4160009,24.6556609 79.7802091,20.8820043 77.2650286,18.4645622 C74.7502419,16.0471201 71.5280639,14.950554 68.3705584,14.950554 C66.5250268,14.950554 64.6466032,15.300481 62.9150831,16.1005809 L62.9150831,14.1199604 C62.9150831,9.77269578 61.2718871,5.9332996 58.7641108,3.51402676 C56.2566637,1.09473543 53.0811376,1.42108547e-14 49.9288081,1.42108547e-14 L49.9288081,1.42108547e-14 Z M49.9288081,8.17808048 C51.3821175,8.17808048 52.7773726,8.73445388 53.7238564,9.64757787 C54.6703421,10.5607019 55.3249865,11.8024129 55.3249865,14.1199604 C55.3249865,35.847389 55.3249865,57.5461732 55.3249865,79.2890243 C55.2965456,81.4492775 57.1149529,83.4362593 59.1200348,83.4362593 C61.1252461,83.4362593 62.943389,81.4492775 62.9150831,79.2890243 L62.9150831,29.3260759 C62.9473889,27.3328993 63.5061699,25.6861916 64.51608,24.5981318 C65.4679395,23.6831586 66.9056526,23.1286159 68.3705584,23.1286159 C69.8352035,23.1286159 71.2727852,23.6831586 72.2248408,24.5981318 C73.1765671,25.5130866 73.825969,26.6927749 73.825969,29.006624 C73.825969,55.1785675 73.825969,81.3048538 73.825969,107.464962 C73.7974726,109.6254 75.6158707,111.612382 77.6210173,111.612382 C79.6261639,111.612382 81.4443068,109.6254 81.4160009,107.464962 L81.4160009,73.0915643 C81.4350663,71.0335911 82.0139668,69.3514155 83.0169978,68.2997113 C83.9650553,67.380226 85.3633247,66.8302139 86.8120461,66.8302139 C88.2606381,66.8302139 89.6591035,67.380226 90.607161,68.2997113 C91.555152,69.2191966 92.2674567,70.4309503 92.2674567,72.7720938 L92.2674567,108.614989 C92.2674567,124.280061 86.9707439,135.529208 79.1033519,143.116353 C71.2358305,150.703498 60.6105596,154.552825 49.9288081,154.552825 C39.2469919,154.552825 28.6217875,150.703498 20.7541995,143.116353 C12.8867428,135.529208 7.5900966,124.280061 7.5900966,108.614989 L7.5900966,50.410181 C7.5900966,48.0963319 8.23962976,46.8527532 9.19109354,45.9377985 C10.1430825,45.0228252 11.5807974,44.4682826 13.0455072,44.4682826 C14.5102151,44.4682826 15.8885647,45.0228252 16.8405537,45.9377985 C18.3570932,47.4208506 18.4830932,48.933897 18.5009159,50.7935233 L18.5009159,86.7004941 C18.472475,88.8607473 20.2908842,90.8477291 22.2959643,90.8477291 C24.3011756,90.8477291 26.1193185,88.8607473 26.0910126,86.7004941 C26.0910126,67.4764776 26.0910126,48.2812535 26.0910126,29.0705144 C26.0910126,26.7529669 26.7459177,25.5751277 27.6919448,24.6620222 C28.6384305,23.7488797 30.0342736,23.1925248 31.4870578,23.1925248 C32.9403672,23.1925248 34.3360143,23.7488797 35.2821727,24.6620222 C36.7358093,26.2806773 36.8669871,27.6129444 36.8832362,29.4538567 L36.8832362,79.9279281 C36.8547952,82.0881814 38.6732044,84.0751632 40.6783492,84.0751632 C42.6834311,84.0751632 44.5016387,82.0881814 44.4734641,79.9279281 C44.4747733,57.9864714 44.4734641,36.0475296 44.4734641,14.1199604 C44.4734641,11.8024129 45.187276,10.5607019 46.1337598,9.64757787 C47.0802455,8.73445388 48.4755006,8.17808048 49.9288081,8.17808048 L49.9288081,8.17808048 Z" id="Shape"></path>
                    <circle id="Oval" cx="41.3385427" cy="100.412388" r="4.62303813"></circle>
                    <circle id="Oval-Copy" cx="59.3804982" cy="100.412388" r="4.62303813"></circle>
                    <path d="M18.0588296,111.221828 C16.9208683,111.256894 15.857611,111.840479 15.1622317,112.811668 C14.4668524,113.782856 14.2127963,115.039074 14.4701149,116.233941 C17.2577422,130.08142 24.2902985,139.323058 32.8253737,144.160975 C41.3604489,148.998892 51.1612379,149.575847 59.8203474,147.303161 C61.1507352,146.970385 62.2125967,145.893112 62.6008818,144.482272 C62.9891667,143.071432 62.6439935,141.544605 61.6970294,140.484205 C60.7500651,139.423805 59.3473518,138.993367 58.0239587,139.357083 C50.9500557,141.213695 42.9691127,140.670026 36.3594423,136.923331 C29.7497071,133.176821 24.2765385,126.36986 21.8870325,114.499932 C21.5213078,112.549109 19.9052231,111.16525 18.0588296,111.221828 L18.0588296,111.221828 Z" id="Path"></path>
                </g>
                <path d="M136.581,146.495 C135.176993,146.495 133.987505,145.988005 133.0125,144.974 C132.037495,143.959995 131.55,142.751007 131.55,141.347 C131.55,140.722997 131.666999,140.099003 131.901,139.475 L139.506,119.936 L117.51,66.35 C117.197998,65.5699961 117.042,64.8290035 117.042,64.127 C117.042,62.6449926 117.548995,61.3775053 118.563,60.3245 C119.577005,59.2714947 120.824993,58.745 122.307,58.745 C123.399005,58.745 124.393496,59.0569969 125.2905,59.681 C126.187504,60.3050031 126.830998,61.0849953 127.221,62.021 L145.239,106.715 L163.608,62.255 C164.622005,59.9149883 166.259989,58.745 168.522,58.745 C170.004007,58.745 171.251995,59.2714947 172.266,60.3245 C173.280005,61.3775053 173.787,62.6449926 173.787,64.127 C173.787,64.8290035 173.670001,65.4919969 173.436,66.116 L141.495,142.868 C140.402995,145.286012 138.765011,146.495 136.581,146.495 Z M197.485072,120.17 C194.053054,120.17 190.874586,119.468007 187.949572,118.064 C185.024557,116.66 182.70408,114.612513 180.988072,111.9215 C179.272063,109.230487 178.414072,106.130018 178.414072,102.62 C178.414072,96.8479711 180.695549,92.2460172 185.258572,88.814 C189.821594,85.3819828 196.510027,83.666 205.324072,83.666 L219.481072,83.666 L219.481072,82.73 C219.481072,77.5819743 218.213584,73.8770113 215.678572,71.615 C213.143559,69.3529887 209.185098,68.222 203.803072,68.222 C200.839057,68.222 198.206583,68.4559977 195.905572,68.924 C193.60456,69.3920023 191.050086,70.0939953 188.242072,71.03 C187.618068,71.1860008 187.111073,71.264 186.721072,71.264 C185.551066,71.264 184.537076,70.8350043 183.679072,69.977 C182.821067,69.1189957 182.392072,68.0660062 182.392072,66.818 C182.392072,64.7119895 183.406061,63.2300043 185.434072,62.372 C192.064105,59.563986 198.811037,58.16 205.675072,58.16 C211.057098,58.16 215.600553,59.2519891 219.305572,61.436 C223.01059,63.6200109 225.740563,66.4474826 227.495572,69.9185 C229.25058,73.3895174 230.128072,77.1529797 230.128072,81.209 L230.128072,114.32 C230.128072,115.802007 229.601577,117.049995 228.548572,118.064 C227.495566,119.078005 226.228079,119.585 224.746072,119.585 C223.264064,119.585 222.016077,119.078005 221.002072,118.064 C219.988066,117.049995 219.481072,115.802007 219.481072,114.32 L219.481072,111.278 C213.709043,117.20603 206.377116,120.17 197.485072,120.17 Z M201.463072,110.81 C204.895089,110.81 208.210056,109.971508 211.408072,108.2945 C214.606088,106.617492 217.297061,104.531012 219.481072,102.035 L219.481072,92.207 L206.728072,92.207 C194.950013,92.207 189.061072,95.2879692 189.061072,101.45 C189.061072,104.258014 190.016562,106.519991 191.927572,108.236 C193.838581,109.952009 197.017049,110.81 201.463072,110.81 Z M250.199143,119.585 C248.717136,119.585 247.469148,119.078005 246.455143,118.064 C245.441138,117.049995 244.934143,115.802007 244.934143,114.32 L244.934143,38.387 C244.934143,36.9049926 245.441138,35.6375053 246.455143,34.5845 C247.469148,33.5314947 248.717136,33.005 250.199143,33.005 C251.759151,33.005 253.046138,33.5119949 254.060143,34.526 C255.074148,35.5400051 255.581143,36.8269922 255.581143,38.387 L255.581143,114.32 C255.581143,115.802007 255.054648,117.049995 254.001643,118.064 C252.948638,119.078005 251.68115,119.585 250.199143,119.585 Z M276.237215,119.585 C274.755207,119.585 273.50722,119.078005 272.493215,118.064 C271.47921,117.049995 270.972215,115.802007 270.972215,114.32 L270.972215,38.387 C270.972215,36.9049926 271.47921,35.6375053 272.493215,34.5845 C273.50722,33.5314947 274.755207,33.005 276.237215,33.005 C277.797222,33.005 279.08421,33.5119949 280.098215,34.526 C281.11222,35.5400051 281.619215,36.8269922 281.619215,38.387 L281.619215,114.32 C281.619215,115.802007 281.09272,117.049995 280.039715,118.064 C278.986709,119.078005 277.719222,119.585 276.237215,119.585 Z M302.275286,119.585 C300.793279,119.585 299.545291,119.078005 298.531286,118.064 C297.517281,117.049995 297.010286,115.802007 297.010286,114.32 L297.010286,38.387 C297.010286,36.9049926 297.517281,35.6375053 298.531286,34.5845 C299.545291,33.5314947 300.793279,33.005 302.275286,33.005 C303.757294,33.005 305.024781,33.5314947 306.077786,34.5845 C307.130791,35.6375053 307.657286,36.9049926 307.657286,38.387 L307.657286,68.924 C310.621301,65.6479836 313.819269,63.0350097 317.251286,61.085 C320.683303,59.1349903 324.739263,58.16 329.419286,58.16 C333.709308,58.16 337.43377,59.1739899 340.592786,61.202 C343.751802,63.2300101 346.169778,65.9989824 347.846786,69.509 C349.523795,73.0190176 350.362286,76.8799789 350.362286,81.092 L350.362286,114.32 C350.362286,115.802007 349.835791,117.049995 348.782786,118.064 C347.729781,119.078005 346.462294,119.585 344.980286,119.585 C343.498279,119.585 342.250291,119.078005 341.236286,118.064 C340.222281,117.049995 339.715286,115.802007 339.715286,114.32 L339.715286,82.262 C339.715286,72.7459524 335.425329,67.988 326.845286,67.988 C322.945267,67.988 319.454802,69.0019899 316.373786,71.03 C313.292771,73.0580101 310.3873,75.7879828 307.657286,79.22 L307.657286,114.32 C307.657286,115.802007 307.130791,117.049995 306.077786,118.064 C305.024781,119.078005 303.757294,119.585 302.275286,119.585 Z M380.378358,120.17 C376.946341,120.17 373.767872,119.468007 370.842858,118.064 C367.917843,116.66 365.597366,114.612513 363.881358,111.9215 C362.165349,109.230487 361.307358,106.130018 361.307358,102.62 C361.307358,96.8479711 363.588835,92.2460172 368.151858,88.814 C372.714881,85.3819828 379.403314,83.666 388.217358,83.666 L402.374358,83.666 L402.374358,82.73 C402.374358,77.5819743 401.10687,73.8770113 398.571858,71.615 C396.036845,69.3529887 392.078385,68.222 386.696358,68.222 C383.732343,68.222 381.099869,68.4559977 378.798858,68.924 C376.497846,69.3920023 373.943372,70.0939953 371.135358,71.03 C370.511355,71.1860008 370.00436,71.264 369.614358,71.264 C368.444352,71.264 367.430362,70.8350043 366.572358,69.977 C365.714353,69.1189957 365.285358,68.0660062 365.285358,66.818 C365.285358,64.7119895 366.299348,63.2300043 368.327358,62.372 C374.957391,59.563986 381.704323,58.16 388.568358,58.16 C393.950385,58.16 398.493839,59.2519891 402.198858,61.436 C405.903876,63.6200109 408.633849,66.4474826 410.388858,69.9185 C412.143866,73.3895174 413.021358,77.1529797 413.021358,81.209 L413.021358,114.32 C413.021358,115.802007 412.494863,117.049995 411.441858,118.064 C410.388852,119.078005 409.121365,119.585 407.639358,119.585 C406.15735,119.585 404.909363,119.078005 403.895358,118.064 C402.881353,117.049995 402.374358,115.802007 402.374358,114.32 L402.374358,111.278 C396.602329,117.20603 389.270402,120.17 380.378358,120.17 Z M384.356358,110.81 C387.788375,110.81 391.103342,109.971508 394.301358,108.2945 C397.499374,106.617492 400.190347,104.531012 402.374358,102.035 L402.374358,92.207 L389.621358,92.207 C377.843299,92.207 371.954358,95.2879692 371.954358,101.45 C371.954358,104.258014 372.909848,106.519991 374.820858,108.236 C376.731867,109.952009 379.910335,110.81 384.356358,110.81 Z M433.092429,119.585 C431.610422,119.585 430.362434,119.078005 429.348429,118.064 C428.334424,117.049995 427.827429,115.802007 427.827429,114.32 L427.827429,64.127 C427.827429,62.6449926 428.334424,61.3775053 429.348429,60.3245 C430.362434,59.2714947 431.610422,58.745 433.092429,58.745 C434.574437,58.745 435.841924,59.2714947 436.894929,60.3245 C437.947935,61.3775053 438.474429,62.6449926 438.474429,64.127 L438.474429,68.924 C441.438444,65.6479836 444.636412,63.0350097 448.068429,61.085 C451.500446,59.1349903 455.556406,58.16 460.236429,58.16 C464.526451,58.16 468.250913,59.1739899 471.409929,61.202 C474.568945,63.2300101 476.986921,65.9989824 478.663929,69.509 C480.340938,73.0190176 481.179429,76.8799789 481.179429,81.092 L481.179429,114.32 C481.179429,115.802007 480.652935,117.049995 479.599929,118.064 C478.546924,119.078005 477.279437,119.585 475.797429,119.585 C474.315422,119.585 473.067434,119.078005 472.053429,118.064 C471.039424,117.049995 470.532429,115.802007 470.532429,114.32 L470.532429,82.262 C470.532429,72.7459524 466.242472,67.988 457.662429,67.988 C453.76241,67.988 450.271945,69.0019899 447.190929,71.03 C444.109914,73.0580101 441.204443,75.7879828 438.474429,79.22 L438.474429,114.32 C438.474429,115.802007 437.947935,117.049995 436.894929,118.064 C435.841924,119.078005 434.574437,119.585 433.092429,119.585 Z M520.672501,120.17 C515.836477,120.17 511.254022,118.941512 506.925001,116.4845 C502.595979,114.027488 499.086014,110.439524 496.395001,105.7205 C493.703987,101.001476 492.358501,95.4830316 492.358501,89.165 C492.358501,82.8469684 493.703987,77.3285236 496.395001,72.6095 C499.086014,67.8904764 502.595979,64.3025123 506.925001,61.8455 C511.254022,59.3884877 515.836477,58.16 520.672501,58.16 C528.316539,58.16 534.985472,61.1239704 540.679501,67.052 L540.679501,38.387 C540.679501,36.8269922 541.205996,35.5400051 542.259001,34.526 C543.312006,33.5119949 544.579493,33.005 546.061501,33.005 C547.543508,33.005 548.791496,33.5314947 549.805501,34.5845 C550.819506,35.6375053 551.326501,36.9049926 551.326501,38.387 L551.326501,114.32 C551.326501,115.802007 550.819506,117.049995 549.805501,118.064 C548.791496,119.078005 547.543508,119.585 546.061501,119.585 C544.579493,119.585 543.312006,119.078005 542.259001,118.064 C541.205996,117.049995 540.679501,115.802007 540.679501,114.32 L540.679501,111.278 C534.985472,117.20603 528.316539,120.17 520.672501,120.17 Z M522.193501,110.225 C525.781519,110.225 529.154985,109.425508 532.314001,107.8265 C535.473017,106.227492 538.261489,104.102013 540.679501,101.45 L540.679501,76.88 C538.261489,74.2279867 535.473017,72.102508 532.314001,70.5035 C529.154985,68.904492 525.781519,68.105 522.193501,68.105 C516.421472,68.105 511.780518,69.9379817 508.270501,73.604 C504.760483,77.2700183 503.005501,82.4569665 503.005501,89.165 C503.005501,95.8730335 504.760483,101.059982 508.270501,104.726 C511.780518,108.392018 516.421472,110.225 522.193501,110.225 Z M586.022572,120.17 C578.222533,120.17 571.124604,118.415018 564.728572,114.905 C563.402566,113.968995 562.739572,112.682008 562.739572,111.044 C562.739572,109.795994 563.168568,108.704005 564.026572,107.768 C564.884577,106.831995 565.976566,106.364 567.302572,106.364 C568.004576,106.364 568.706569,106.519998 569.408572,106.832 C571.904585,107.924005 574.40056,108.781997 576.896572,109.406 C579.392585,110.030003 582.200557,110.342 585.320572,110.342 C593.978616,110.342 598.307572,107.573028 598.307572,102.035 C598.307572,100.240991 597.313082,98.8760047 595.324072,97.94 C593.335062,97.0039953 590.078595,95.9510059 585.554572,94.781 C580.952549,93.6889945 577.150087,92.5580059 574.147072,91.388 C571.144057,90.2179941 568.570083,88.4435119 566.425072,86.0645 C564.280062,83.6854881 563.207572,80.5460195 563.207572,76.646 C563.207572,71.1859727 565.177053,66.7400172 569.116072,63.308 C573.055092,59.8759828 578.690536,58.16 586.022572,58.16 C592.028602,58.16 597.683546,59.1349903 602.987572,61.085 C604.079578,61.3970016 604.918069,61.9819957 605.503072,62.84 C606.088075,63.6980043 606.380572,64.5949953 606.380572,65.531 C606.380572,66.7790062 605.932077,67.8709953 605.035072,68.807 C604.138068,69.7430047 603.026579,70.211 601.700572,70.211 C601.31057,70.211 600.803575,70.1330008 600.179572,69.977 C595.65555,68.572993 591.209594,67.871 586.841572,67.871 C582.629551,67.871 579.334084,68.6314924 576.955072,70.1525 C574.57606,71.6735076 573.386572,73.6429879 573.386572,76.061 C573.386572,78.4010117 574.478561,80.1169945 576.662572,81.209 C578.846583,82.3010055 582.239549,83.3539949 586.841572,84.368 C591.443595,85.5380058 595.187558,86.6884943 598.073572,87.8195 C600.959587,88.9505057 603.436062,90.7249879 605.503072,93.143 C607.570083,95.5610121 608.603572,98.7979797 608.603572,102.854 C608.603572,107.846025 606.634092,111.979984 602.695072,115.256 C598.756053,118.532016 593.198608,120.17 586.022572,120.17 Z" id="yallhands"></path>
            </g>
        </g>
    </g>
</svg>