<?xml version="1.0" encoding="UTF-8"?>
<svg width="24px" height="24px" viewBox="0 0 24 24" version="1.1" xmlns="http://www.w3.org/2000/svg" xmlns:xlink="http://www.w3.org/1999/xlink">
    <!-- Generator: sketchtool 57.1 (101010) - https://sketch.com -->
    <title>7F552ECF-4F46-4B35-9E3B-D32A9E649ECD</title>
    <desc>Created with sketchtool.</desc>
    <g id="Symbols" stroke="none" stroke-width="1" fill="none" fill-rule="evenodd">
        <g id="staff-card" transform="translate(-24.000000, -128.000000)" fill="#4780F7" fill-rule="nonzero">
            <g id="location" transform="translate(24.000000, 128.000000)">
                <g id="Group" transform="translate(6.000000, 3.000000)">
                    <g id="Shape">
                        <path d="M6.375,0.050415 C2.92066625,0.050415 0.111165,2.86166625 0.111165,6.31599875 C0.111165,10.33202 5.4563375,16.8557163 5.68387875,17.1307362 L6.375,17.96883 L7.06612125,17.1307362 C7.2936625,16.85482 12.638835,10.3320187 12.638835,6.31599875 C12.638835,2.86077 9.82933375,0.050415 6.375,0.050415 Z M6.375,1.84208125 C8.84122875,1.84208125 10.8471687,3.84977 10.8471687,6.31599875 C10.8471687,8.7392275 8.057375,12.9068825 6.375,15.1151112 C4.692625,12.9086737 1.9028325,8.74281 1.9028325,6.31599875 C1.9028325,3.84977 3.90877125,1.84208125 6.375,1.84208125 Z M6.375,4.07291625 C5.13785375,4.07291625 4.13541625,5.07535375 4.13541625,6.3125 C4.13541625,7.54964625 5.13785375,8.55208375 6.375,8.55208375 C7.61214625,8.55208375 8.61458375,7.54964625 8.61458375,6.3125 C8.61458375,5.07535375 7.61214625,4.07291625 6.375,4.07291625 Z"></path>
                    </g>
                </g>
            </g>
        </g>
    </g>
</svg>