<svg xmlns="http://www.w3.org/2000/svg" width="72" height="72" viewBox="0 0 72 72">
    <defs>
        <linearGradient id="a" x1="18.896%" x2="88.005%" y1="10.373%" y2="100%">
            <stop offset="0%" stop-color="#EAF1FF"/>
            <stop offset="100%" stop-color="#E1E8F5"/>
        </linearGradient>
    </defs>
    <g fill="none" fill-rule="evenodd">
        <rect width="72" height="72" fill="url(#a)" rx="36"/>
        <path fill="#1249BD" fill-rule="nonzero" d="M35.855 45.084l6.925 4.18c1.092.658 2.44-.321 2.15-1.563l-1.838-7.877 6.119-5.301c.964-.835.449-2.42-.822-2.527l-8.055-.683-3.15-7.434c-.498-1.172-2.16-1.172-2.657 0l-3.15 7.434-8.055.683c-1.27.108-1.786 1.692-.822 2.527l6.119 5.3-1.838 7.878c-.29 1.242 1.057 2.221 2.15 1.562l6.924-4.179z"/>
    </g>
</svg>
