<svg xmlns="http://www.w3.org/2000/svg" width="72" height="72" viewBox="0 0 72 72">
    <defs>
        <linearGradient id="a" x1="18.896%" x2="88.005%" y1="10.373%" y2="100%">
            <stop offset="0%" stop-color="#EAF1FF"/>
            <stop offset="100%" stop-color="#E1E8F5"/>
        </linearGradient>
    </defs>
    <g fill="none" fill-rule="evenodd">
        <rect width="72" height="72" fill="url(#a)" rx="36"/>
        <path fill="#1249BD" fill-rule="nonzero" d="M47.76 26.17l-4.519-1.128a1.391 1.391 0 0 0-.338-.042H24.787A2.79 2.79 0 0 0 22 27.787v16.722a2.79 2.79 0 0 0 2.787 2.787h18.116c.114 0 .227-.014.338-.042l4.52-1.13a2.781 2.781 0 0 0 2.11-2.703V28.875a2.784 2.784 0 0 0-2.112-2.704zm-6.25 10.675v1.393a.697.697 0 0 1-.698.697h-9.754a.697.697 0 0 1-.697-.697v-1.393c0-.385.312-.697.697-.697h9.755c.384 0 .696.312.696.697zm-12.542-8.361v2.787a.697.697 0 0 1-.697.697h-2.787a.697.697 0 0 1-.697-.697v-2.787c0-.385.312-.697.697-.697h2.787c.384 0 .697.312.697.697zm2.09 16.025a.697.697 0 0 1-.697-.696v-1.394c0-.385.312-.697.697-.697h9.755c.384 0 .696.312.696.697v1.394a.697.697 0 0 1-.697.696h-9.754zm15.497-.956l-1.393.349a.697.697 0 0 1-.866-.676V29.07c0-.452.427-.785.866-.675l1.393.348c.31.078.528.357.528.676v13.458c0 .32-.217.598-.528.676z"/>
    </g>
</svg>
